<?xml version="1.0" encoding="UTF-8"?>
<svg width="217px" height="96px" viewBox="0 0 217 96" version="1.1" xmlns="http://www.w3.org/2000/svg" xmlns:xlink="http://www.w3.org/1999/xlink">
    <g id="Tymate-/-logo_horizontal_colored" stroke="none" stroke-width="1" fill="none" fill-rule="evenodd">
        <g id="Content" transform="translate(24.000000, 24.000000)">
            <path d="M19.96875,0 C14.3530734,5.26252323 7.96875,14.276524 7.96875,25.96875 C7.96875,31.136741 9.28005001,35.4729821 11.625,39.46875 L11.625,39.46875 L14.625,39.46875 C12.2633431,34.6934135 11.4650375,30.4547492 11.4375,26.0625 C11.4650375,14.7644078 17.4512687,5.79884687 23.4375,0 L23.4375,0 L36.5625,8.18186099e-16 C43.5,8.18186099e-16 48,4.5 48,11.4375 L48,36.5625 C48,43.5 43.5,48 36.5625,48 L27.9077631,48 C33.552116,42.68899 39.9375,33.6257723 39.9375,21.9802328 C39.9375,16.9997048 38.7711193,12.7894286 36.5921042,8.95569128 L36.345832,8.53125 L33.3052645,8.53125 C35.6421998,13.2087025 36.4412125,17.4972386 36.4412125,21.8826552 C36.4412125,32.9537151 30.6506685,41.8565043 24.7631789,47.7098766 L24.46875,48 L11.4375,48 C4.5,48 0,43.5 0,36.5625 L0,11.4375 C0,4.5 4.5,8.18186102e-16 11.4375,8.18186102e-16 Z M31.125,22.78125 L17.4663109,22.78125 L16.78125,25.40625 L30.4392303,25.40625 L31.125,22.78125 Z" id="Logo" fill="#41D974"></path>
            <g id="Tymate" transform="translate(56.000000, 11.000000)">
                <rect id="Bound" x="1" y="1" width="112" height="31"></rect>
                <path d="M9.43607955,25.272017 L9.81818182,25.2684659 C10.4744318,25.2514205 11.0305398,25.1917614 11.4865057,25.0894886 C11.9424716,24.9872159 12.2940341,24.8934659 12.5411932,24.8082386 L12.5411932,24.8082386 L11.7613636,21.1903409 C11.6335227,21.2244318 11.4481534,21.2627841 11.2052557,21.3053977 C10.962358,21.3480114 10.6960227,21.3693182 10.40625,21.3693182 C10.0227273,21.3693182 9.67329545,21.3096591 9.35795455,21.1903409 C9.04261364,21.0710227 8.7890625,20.8473011 8.59730114,20.5191761 C8.40553977,20.1910511 8.30965909,19.7159091 8.30965909,19.09375 L8.30965909,19.09375 L8.309,8.944 L12.1832386,8.94318182 L12.1832386,5.36363636 L8.309,5.364 L8.30965909,0.659090909 L3.68181818,0.659090909 L3.681,5.364 L0.894886364,5.36363636 L0.894886364,8.94318182 L3.681,8.944 L3.68181818,19.8607955 C3.67400568,20.9857955 3.89715021,21.9389205 4.35125178,22.7201705 L4.48082386,22.9289773 C5.02201705,23.7471591 5.75710227,24.350142 6.68607955,24.7379261 C7.61505682,25.1257102 8.65909091,25.3025568 9.81818182,25.2684659 L9.43607955,25.272017 Z M16.9383885,32.3252841 C18.1486158,32.3252841 19.1905192,32.1271307 20.0640987,31.7308239 C20.9376783,31.334517 21.6770248,30.765625 22.2821385,30.0241477 C22.8872521,29.2826705 23.3730476,28.4005682 23.7395248,27.3778409 L23.7395248,27.3778409 L31.6273089,5.38920455 L26.6798658,5.36363636 L22.1415135,20.1931818 L21.936968,20.1931818 L17.4113998,5.36363636 L12.5023089,5.36363636 L19.6230476,25.4090909 L19.2267408,26.4701705 C18.7835589,27.5525568 18.2189283,28.1896307 17.5328487,28.381392 C16.8467692,28.5731534 16.0008885,28.5241477 14.9952067,28.234375 L14.9952067,28.234375 L13.921343,31.8267045 C14.2366839,31.9630682 14.6606896,32.0802557 15.1933601,32.178267 C15.7260305,32.2762784 16.3077067,32.3252841 16.9383885,32.3252841 Z M37.4461008,25 L37.4461008,13.0596591 C37.4461008,12.25 37.6080326,11.540483 37.9318962,10.931108 C38.2557598,10.321733 38.6904189,9.84872159 39.2358735,9.51207386 C39.781328,9.17542614 40.3864417,9.00710227 41.0512144,9.00710227 C42.031328,9.00710227 42.8260723,9.30965909 43.4354473,9.91477273 C44.0448223,10.5198864 44.3495098,11.3295455 44.3495098,12.34375 L44.3495098,12.34375 L44.3495098,25 L48.8878621,25 L48.8878621,12.7528409 C48.8878621,11.6448864 49.2010723,10.743608 49.8274928,10.0490057 C50.4539133,9.35440341 51.3253621,9.00710227 52.4418394,9.00710227 C53.3793394,9.00710227 54.171953,9.29048295 54.8196803,9.85724432 C55.4674076,10.4240057 55.7912712,11.3167614 55.7912712,12.5355114 L55.7912712,12.5355114 L55.7912712,25 L60.4318962,25 L60.4318962,11.8196023 C60.4318962,9.62926136 59.8608735,7.96306818 58.718828,6.82102273 C57.5767826,5.67897727 56.1023508,5.10795455 54.2955326,5.10795455 C52.8722371,5.10795455 51.6428337,5.43394886 50.6073223,6.0859375 C49.571811,6.73792614 48.8367258,7.609375 48.4020667,8.70028409 L48.4020667,8.70028409 L48.1975212,8.70028409 C47.8225212,7.59232955 47.1769246,6.71661932 46.2607314,6.07315341 C45.3445383,5.4296875 44.2216689,5.10795455 42.8921235,5.10795455 C41.5796235,5.10795455 40.4503621,5.42542614 39.5043394,6.06036932 C38.5583167,6.6953125 37.8807598,7.57528409 37.4716689,8.70028409 L37.4716689,8.70028409 L37.2415553,8.70028409 L37.2415553,5.36363636 L32.8182598,5.36363636 L32.8182598,25 L37.4461008,25 Z M70.4234359,25.3451705 C71.5484359,25.3451705 72.4816745,25.1576705 73.2231518,24.7826705 C73.9646291,24.4076705 74.56122,23.9538352 75.0129245,23.4211648 C75.4646291,22.8884943 75.8097995,22.3835227 76.0484359,21.90625 L76.0484359,21.90625 L76.3296859,21.90625 L76.3296859,25 L80.8808223,25 L80.8808223,5.36363636 L76.2401973,5.36363636 L76.2401973,8.61079545 L76.0484359,8.61079545 C75.8097995,8.13352273 75.4731518,7.62428977 75.0384927,7.08309659 C74.6038336,6.54190341 74.0157655,6.07741477 73.2742882,5.68963068 C72.5328109,5.30184659 71.5867882,5.10795455 70.43622,5.10795455 C68.9276973,5.10795455 67.5597995,5.49360795 66.3325268,6.26491477 C65.1052541,7.03622159 64.1315325,8.17400568 63.411362,9.67826705 C62.6911916,11.1825284 62.3311064,13.0255682 62.3311064,15.2073864 C62.3311064,17.3636364 62.6847995,19.1960227 63.3921859,20.7045455 C64.0995723,22.2130682 65.0626405,23.3636364 66.2813905,24.15625 C67.5001405,24.9488636 68.8808223,25.3451705 70.4234359,25.3451705 Z M71.7146291,21.5482955 C70.7004245,21.5482955 69.8460211,21.2734375 69.1514189,20.7237216 C68.4568166,20.1740057 67.9326689,19.4197443 67.5789757,18.4609375 C67.2252825,17.5021307 67.0484359,16.4090909 67.0484359,15.1818182 C67.0484359,13.9630682 67.2231518,12.8806818 67.5725836,11.9346591 C67.9220155,10.9886364 68.4419018,10.2471591 69.1322427,9.71022727 C69.8225836,9.17329545 70.6833791,8.90482955 71.7146291,8.90482955 C72.7117882,8.90482955 73.5534075,9.16477273 74.239487,9.68465909 C74.9255666,10.2045455 75.445453,10.9332386 75.7991461,11.8707386 C76.1528393,12.8082386 76.3296859,13.9119318 76.3296859,15.1818182 C76.3296859,16.4517045 76.1507086,17.5639205 75.7927541,18.5184659 C75.4347995,19.4730114 74.9106518,20.2166193 74.2203109,20.7492898 C73.52997,21.2819602 72.6947427,21.5482955 71.7146291,21.5482955 Z M90.8890821,25.272017 L91.2711844,25.2684659 C91.9274344,25.2514205 92.4835424,25.1917614 92.9395083,25.0894886 C93.3954742,24.9872159 93.7470367,24.8934659 93.9941958,24.8082386 L93.9941958,24.8082386 L93.2143662,21.1903409 C93.0865253,21.2244318 92.901156,21.2627841 92.6582583,21.3053977 C92.4153605,21.3480114 92.1490253,21.3693182 91.8592526,21.3693182 C91.4757299,21.3693182 91.126298,21.3096591 90.8109571,21.1903409 C90.4956162,21.0710227 90.2420651,20.8473011 90.0503037,20.5191761 C89.8585424,20.1910511 89.7626617,19.7159091 89.7626617,19.09375 L89.7626617,19.09375 L89.762,8.944 L93.6362412,8.94318182 L93.6362412,5.36363636 L89.762,5.364 L89.7626617,0.659090909 L85.1348208,0.659090909 L85.134,5.364 L82.3478889,5.36363636 L82.3478889,8.94318182 L85.134,8.944 L85.1348208,19.8607955 C85.1270083,20.9857955 85.3501528,21.9389205 85.8042544,22.7201705 L85.9338264,22.9289773 C86.4750196,23.7471591 87.2101049,24.350142 88.1390821,24.7379261 C89.0680594,25.1257102 90.1120935,25.3025568 91.2711844,25.2684659 L90.8890821,25.272017 Z M104.003607,25.3835227 C105.529175,25.3835227 106.884289,25.1512784 108.068948,24.6867898 C109.253607,24.2223011 110.227329,23.5660511 110.990113,22.7180398 C111.752897,21.8700284 112.270652,20.875 112.54338,19.7329545 L112.54338,19.7329545 L108.222357,19.2471591 C108.017812,19.8011364 107.715255,20.265625 107.314687,20.640625 C106.914118,21.015625 106.441107,21.2990057 105.895652,21.490767 C105.350198,21.6825284 104.740823,21.7784091 104.067527,21.7784091 C103.061846,21.7784091 102.184005,21.5632102 101.434005,21.1328125 C100.684005,20.7024148 100.100198,20.0802557 99.6825842,19.2663352 C99.2649706,18.4524148 99.0561638,17.4744318 99.0561638,16.3323864 L99.058,16.448 L112.735141,16.4474432 L112.735141,15.0284091 C112.735141,13.3068182 112.496505,11.821733 112.019232,10.5731534 C111.541959,9.32457386 110.88784,8.29545455 110.056874,7.48579545 C109.225908,6.67613636 108.271363,6.07741477 107.193238,5.68963068 C106.115113,5.30184659 104.970937,5.10795455 103.760709,5.10795455 C101.885709,5.10795455 100.253607,5.53622159 98.8644024,6.39275568 C97.4751979,7.24928977 96.3949422,8.44247159 95.6236354,9.97230114 C94.8523286,11.5021307 94.4666752,13.2769886 94.4666752,15.296875 C94.4666752,17.3508523 94.8501979,19.134233 95.6172433,20.647017 C96.3842888,22.1598011 97.4815899,23.3274148 98.9091467,24.149858 C100.336704,24.9723011 102.034857,25.3835227 104.003607,25.3835227 Z M99.0661859,13.3193655 C99.1120613,12.5529514 99.3111354,11.8420928 99.6634081,11.1867898 C100.059715,10.4495739 100.615823,9.85298295 101.331732,9.39701705 C102.047641,8.94105114 102.878607,8.71306818 103.82463,8.71306818 C104.710993,8.71306818 105.488692,8.91335227 106.157726,9.31392045 C106.82676,9.71448864 107.348777,10.2620739 107.723777,10.9566761 C108.098777,11.6512784 108.290539,12.4417614 108.299062,13.328125 L108.299062,13.328125 L99.066,13.329 L99.0661859,13.3193655 Z" id="tymate" fill="#41D974"></path>
            </g>
        </g>
    </g>
</svg>
